# xmcd
#
# Track frame offsets:
#	150
#	14444
#	30135
#	49061
#	61511
#	79252
#	94798
#	108901
#	128956
#	143789
#	159089
#	171419
#
# Disc length: 2742 seconds
#
# Revision: 0
# Processed by: cddbd v1.5.1PL0 Copyright (c) Steve Scherf et al.
# Submitted via: dBpowerAMP V4.0
#
DISCID=8b0ab40c
DTITLE=Cruzeros - Scandalosa
DYEAR=2005
DGENRE=Roots
TTITLE0=Scandalosa
TTITLE1=The Way It Is Around Here
TTITLE2=Don't Drink The Water
TTITLE3=Cowboy Boots
TTITLE4=Helplessly
TTITLE5=Stuck With It
TTITLE6=The Way You're Lookin' At Me
TTITLE7=Rosalita
TTITLE8=November 11th
TTITLE9=Load Me Up
TTITLE10=Wooly Bully
TTITLE11=This Lucky
EXTD=
EXTT0=
EXTT1=
EXTT2=
EXTT3=
EXTT4=
EXTT5=
EXTT6=
EXTT7=
EXTT8=
EXTT9=
EXTT10=
EXTT11=
PLAYORDER=
